<svg width="41" height="40" viewBox="0 0 41 40" fill="none" xmlns="http://www.w3.org/2000/svg">
<path d="M25.7433 16.494C26.085 16.1523 26.085 15.5982 25.7433 15.2565C25.4016 14.9148 24.8476 14.9148 24.5059 15.2565L20.9998 18.7626L17.4937 15.2565C17.152 14.9148 16.598 14.9148 16.2563 15.2565C15.9146 15.5982 15.9146 16.1523 16.2563 16.494L19.7624 20L16.2563 23.5061C15.9146 23.8478 15.9146 24.4018 16.2563 24.7435C16.598 25.0852 17.152 25.0852 17.4937 24.7435L20.9998 21.2375L24.5059 24.7435C24.8476 25.0853 25.4016 25.0853 25.7433 24.7435C26.085 24.4018 26.085 23.8478 25.7433 23.5061L22.2372 20L25.7433 16.494Z" fill="#595959"/>
</svg>
